<?xml version="1.0" encoding="UTF-8"?>
<svg id="Capa_1" data-name="Capa 1" xmlns="http://www.w3.org/2000/svg" viewBox="0 0 1920 1080">
  <defs>
    <style>
      .cls-1 {
        fill: #75fbc5;
      }

      .cls-2 {
        fill: #3A3A62;
      }
    </style>
  </defs>
  <rect class="cls-2" width="1920" height="1080" fill-opacity="0.4"/>
  <g>
    <path class="cls-1" d="M373.31836,734.22754h-51.35156c-8.45801,0-12.68701-4.22852-12.68701-12.68652V358.45361c0-8.45801,4.229-12.68701,12.68701-12.68701h51.35156c8.45801,0,12.68701,4.229,12.68701,12.68701v141.97266c0,4.43652,2.4165,6.64551,7.24951,6.64551h102.09961c4.42676,0,6.64551-2.20898,6.64551-6.64551v-141.97266c0-8.45801,4.22852-12.68701,12.68652-12.68701h51.35205c8.45801,0,12.68701,4.229,12.68701,12.68701v363.0874c0,8.45801-4.229,12.68652-12.68701,12.68652h-51.35205c-8.45801,0-12.68652-4.22852-12.68652-12.68652v-141.36914c0-4.42676-2.21875-6.64453-6.64551-6.64453h-102.09961c-4.83301,0-7.24951,2.21777-7.24951,6.64453v141.36914c0,8.45801-4.229,12.68652-12.68701,12.68652Z"/>
    <path class="cls-1" d="M697.7334,734.22754h-57.99707c-7.24951,0-9.6665-4.22852-7.24951-12.68652l95.45361-363.0874c2.81299-8.45801,8.85449-12.68701,18.12402-12.68701h80.35059c10.0625,0,16.104,4.229,18.12402,12.68701l95.4541,363.0874c2.4165,8.45801,0,12.68652-7.25,12.68652h-57.99707c-4.43652,0-7.45752-.90625-9.06201-2.71875-1.61426-1.8125-2.82275-5.13477-3.625-9.96777l-16.91602-66.45605h-117.80664l-16.91602,66.45605c-.81201,4.83301-2.11426,8.15527-3.92676,9.96777s-4.73877,2.71875-8.76025,2.71875Zm87.6001-315.36035l-43.49805,174.5957h89.4126l-43.49805-174.5957h-2.4165Z"/>
    <path class="cls-1" d="M1153.24902,734.22754h-65.85156c-31.82129,0-56.39258-8.45801-73.7041-25.37402-17.32227-16.91602-25.97852-41.2793-25.97852-73.10059v-191.51172c0-31.81152,8.65625-56.18457,25.97852-73.10059,17.31152-16.91602,41.88281-25.37402,73.7041-25.37402h65.85156c31.41504,0,55.88281,8.56201,73.40234,25.67578,17.52051,17.12354,26.28027,41.38379,26.28027,72.79883v28.39453c0,8.86377-4.43652,13.29102-13.29102,13.29102h-50.74805c-8.45801,0-12.68652-4.42725-12.68652-13.29102v-24.76953c0-12.88525-2.71875-22.05127-8.15625-27.48828-5.43652-5.4375-14.60254-8.15625-27.48828-8.15625h-41.08105c-12.48828,0-21.44727,2.71875-26.88379,8.15625-5.4375,5.43701-8.15625,14.60303-8.15625,27.48828v184.26172c0,12.89453,2.71875,22.05176,8.15625,27.48828,5.43652,5.4375,14.39551,8.15625,26.88379,8.15625h41.08105c12.88574,0,22.05176-2.71875,27.48828-8.15625,5.4375-5.43652,8.15625-14.59375,8.15625-27.48828v-24.76953c0-8.85449,4.22852-13.29102,12.68652-13.29102h50.74805c8.85449,0,13.29102,4.43652,13.29102,13.29102v28.39453c0,31.41504-8.75977,55.68457-26.28027,72.79883-17.51953,17.12305-41.9873,25.67578-73.40234,25.67578Z"/>
    <path class="cls-1" d="M1382.81738,734.22754h-51.35156c-8.45801,0-12.6875-4.22852-12.6875-12.68652V358.45361c0-8.45801,4.22949-12.68701,12.6875-12.68701h51.35156c8.45801,0,12.68652,4.229,12.68652,12.68701v172.1792h1.20898c3.21875-9.66602,9.45801-22.14551,18.72754-37.45654l91.8291-134.72266c5.22949-8.45801,13.08398-12.68701,23.56152-12.68701h59.20605c4.42676,0,7.14551,1.31201,8.15527,3.92676,1.00098,2.62451-.10352,5.94727-3.32227,9.96875l-114.78613,158.88818,128.07715,200.57373c2.8125,4.83301,3.32227,8.56152,1.50977,11.17676-1.8125,2.62402-5.54102,3.92676-11.17578,3.92676h-44.10254c-14.10254,0-23.56152-4.22852-28.39453-12.68652l-92.43262-148.01367-38.06152,44.70508v103.30859c0,8.45801-4.22852,12.68652-12.68652,12.68652Z"/>
  </g>
</svg>
